<?xml version="1.0" encoding="utf-8"?>
<svg xmlns="http://www.w3.org/2000/svg"
	xmlns:xlink="http://www.w3.org/1999/xlink"
	width="10px" height="16px" viewBox="0 0 10 16">
<path fillRule="evenodd" d="M 5.97 5.89C 5.96 5.8 5.93 5.71 5.88 5.64 5.88 5.64 7.47 5.64 7.47 5.64 7.75 5.64 7.99 5.4 7.99 5.12 7.99 5.12 7.99 4.78 7.99 4.78 7.99 4.69 7.97 4.61 7.93 4.54 7.93 4.54 10-0 10-0 10-0 5-0 5-0 5-0-0-0-0-0-0-0 0.27 0.68 0.27 0.68 0.27 0.68 2.12 4.46 2.12 4.46 2.05 4.55 2.01 4.66 2.01 4.78 2.01 4.78 2.01 5.11 2.01 5.11 2.01 5.4 2.25 5.64 2.53 5.64 2.53 5.64 4.12 5.64 4.12 5.64 4.07 5.71 4.04 5.8 4.03 5.89 1.74 6.34 0.01 8.36 0.01 10.78 0.01 13.54 2.29 16.01 5.04 15.99 7.8 15.97 9.99 13.54 9.99 10.78 9.99 8.36 8.26 6.34 5.97 5.89ZM 9 1C 9 1 7.39 4.21 7.39 4.21 7.39 4.21 5.92 1.21 5.92 1.21 5.92 1.21 6 1 6 1 6 1 9 1 9 1ZM 2.87 4.55C 2.87 4.55 1 1 1 1 1 1 5 1 5 1 5 1 6.24 3.29 6.24 3.29 6.24 3.29 6.86 4.55 6.86 4.55 6.86 4.55 2.87 4.55 2.87 4.55ZM 8.08 13.86C 7.29 14.65 6.2 15 5 15 3.8 15 2.71 14.65 1.92 13.86 1.13 13.07 1 12.2 1 11 1 9.8 1.21 8.79 2 8 2.79 7.21 3.8 7 5 7 6.2 7 7.21 7.21 8 8 8.78 8.78 8.99 9.81 9 11 9 11 9 11 9 11 9 12.2 8.87 13.07 8.08 13.86Z" fill="rgb(255,255,255)"/></svg>