<?xml version="1.0" encoding="utf-8"?>
<svg xmlns="http://www.w3.org/2000/svg"
	xmlns:xlink="http://www.w3.org/1999/xlink"
	width="12px" height="15px" viewBox="0 0 12 15">
<path fillRule="evenodd" d="M 10.9 1.67C 10.9 1.67 10.9 1.79 10.9 1.79 10.9 1.79 10.9 1.79 10.9 1.79 10.9 1.79 10.9 1.67 10.9 1.67 10.9 1.67 10.64 1.67 10.64 1.67 10.64 1.67 10.49 1.52 10.49 1.52 10.49 1.52 10.49 1.51 10.49 1.51 10.49 1.51 9.81 0.82 9.81 0.82 9.81 0.82 9.8 0.81 9.8 0.81 9.59 0.61 9.29 0.01 9-0 9-0 2-0 2-0 1.72 0.01 1.83 0.6 1.62 0.78 1.62 0.78 1.61 0.78 1.61 0.78 1.61 0.78 0.91 1.5 0.91 1.5 0.91 1.5 0.89 1.52 0.89 1.52 0.89 1.52 0.74 1.67 0.74 1.67 0.74 1.67 0.49 1.67 0.49 1.67 0.22 1.67 0.01 1.89 0.01 2.15 0.01 2.15 0.01 2.6 0.01 2.6 0.01 2.87 0.22 3.09 0.49 3.09 0.49 3.09 0.87 3.09 0.87 3.09 0.87 3.09 1.1 5 1.1 5 1.1 5 1.1 5 1.1 5 1.1 5 1.14 5.34 1.14 5.34 1.14 5.34 1.45 7.94 1.45 7.94 1.45 7.94 1.55 8.75 1.55 8.75 1.55 8.75 1.61 9.24 1.61 9.24 1.61 9.24 1.65 9.61 1.65 9.61 1.65 9.61 2.22 14.31 2.22 14.31 2.27 14.66 2.56 14.93 2.92 14.93 2.92 14.93 8.47 14.93 8.47 14.93 8.83 14.93 9.12 14.66 9.17 14.31 9.17 14.31 9.84 8.75 9.84 8.75 9.84 8.75 10.52 3.09 10.52 3.09 10.52 3.09 10.9 3.09 10.9 3.09 11.17 3.09 11.38 2.87 11.38 2.6 11.38 2.6 11.38 2.16 11.38 2.16 11.38 1.89 11.17 1.67 10.9 1.67ZM 1.98 1.29C 1.98 1.29 1.98 1.29 1.98 1.29 1.98 1.29 2.02 1.25 2.02 1.25 2.06 1.2 2.28 1.1 2.37 1.1 2.37 1.1 2.38 1.1 2.38 1.1 2.38 1.1 9 1.1 9 1.1 9 1.1 9.01 1.1 9.01 1.1 9.01 1.1 9.01 1.1 9.01 1.1 9.01 1.1 9.01 1.1 9.01 1.1 9.09 1.1 9.33 1.2 9.37 1.25 9.37 1.25 9.37 1.26 9.37 1.26 9.37 1.26 9.38 1.26 9.38 1.26 9.38 1.26 10 1 10 1 10 1 2 1 2 1 2 1 1.98 1.29 1.98 1.29ZM 2.22 9.1C 2.22 9.1 2.17 8.67 2.17 8.67 2.17 8.67 1.94 6.84 1.94 6.84 1.94 6.84 1.8 5.62 1.8 5.62 1.8 5.62 5.04 5.62 5.04 5.62 4.29 5.89 3.76 6.6 3.76 7.43 3.76 8.23 4.24 8.91 4.92 9.21 4.92 9.21 2.23 9.21 2.23 9.21 2.23 9.21 2.22 9.1 2.22 9.1ZM 5.69 6.12C 6.42 6.12 7.01 6.71 7.01 7.43 7.01 8.16 6.42 8.75 5.69 8.75 4.97 8.75 4.38 8.16 4.38 7.43 4.38 6.71 4.97 6.12 5.69 6.12ZM 8.55 14.24C 8.55 14.24 8.68 14.25 8.68 14.25 8.68 14.25 8.68 14.25 8.68 14.25 8.68 14.25 8.68 14.25 8.68 14.25 8.68 14.25 8.55 14.24 8.55 14.24 8.55 14.25 8.54 14.27 8.52 14.29 8.51 14.3 8.49 14.31 8.48 14.31 8.48 14.31 8.48 14.31 8.48 14.31 8.47 14.31 8.01 14 8 14 8 14 3 14 3 14 2.99 14 2.88 14.31 2.86 14.29 2.84 14.27 2.84 14.25 2.84 14.24 2.84 14.24 2.3 9.83 2.3 9.83 2.3 9.83 9.08 9.83 9.08 9.83 9.08 9.83 8.55 14.24 8.55 14.24ZM 9.34 7.71C 9.34 7.71 9.22 8.67 9.22 8.67 9.22 8.67 9.16 9.21 9.16 9.21 9.16 9.21 6.47 9.21 6.47 9.21 7.15 8.91 7.63 8.23 7.63 7.43 7.63 6.6 7.1 5.89 6.35 5.62 6.35 5.62 9.59 5.62 9.59 5.62 9.59 5.62 9.34 7.71 9.34 7.71ZM 9.67 5C 9.67 5 1.72 5 1.72 5 1.72 5 1 3 1 3 1 3 10 3 10 3 10 3 9.67 5 9.67 5ZM 10.76 2.47C 10.76 2.47 0.63 2.47 0.63 2.47 0.63 2.47 0.63 2.29 0.63 2.29 0.63 2.29 10.76 2.29 10.76 2.29 10.76 2.29 10.76 2.47 10.76 2.47Z" fill="rgb(255,255,255)"/></svg>