<?xml version="1.0" encoding="utf-8"?>
<svg xmlns="http://www.w3.org/2000/svg"
	xmlns:xlink="http://www.w3.org/1999/xlink"
	width="15px" height="16px" viewBox="0 0 15 16">
<path fillRule="evenodd" d="M 14.67 6.18C 14.67 6.15 14.66 6.13 14.66 6.12 14.62 5.8 14.35 5.56 14.03 5.56 14.03 5.56 13.86 5.56 13.86 5.56 13.86 5.56 13.86 4.94 13.86 4.94 13.86 4.94 13.86 4.94 13.86 4.94 13.86 4.94 13.86 4.8 13.86 4.8 13.86 4.8 13.86 4.63 13.86 4.63 13.86 4.63 13.75 4.52 13.75 4.52 13.75 4.52 10.11 0.88 10.11 0.88 10.11 0.88 9.94 0.72 9.94 0.72 9.94 0.72 9.78 0.72 9.78 0.72 9.78 0.72 9.72 0.72 9.72 0.72 9.72 0.72 10 1 10 1 10 1 1 1 1 1 1 1 1.24 5.56 1.24 5.56 1.24 5.56 1.07 5.56 1.07 5.56 0.75 5.56 0.49 5.79 0.44 6.09 0.44 6.09 0.44 6.09 0.44 6.09 0.44 6.09 0.43 6.14 0.43 6.14 0.43 6.14 0.43 6.16 0.43 6.16 0.43 6.16 0.43 6.17 0.43 6.17 0.43 6.18 0.43 6.19 0.43 6.2 0.43 6.2 0.43 6.39 0.43 6.39 0.43 6.39-0 6-0 6-0 6-0 14-0 14-0 14-0 15-0 15-0 15.35 0.65 16 1 16 1 16 14 16 14 16 14.35 16 15 15.35 15 15 15 15 15 6 15 6 15 6 14.67 6.4 14.67 6.4 14.67 6.4 14.67 6.19 14.67 6.19 14.67 6.19 14.67 6.18 14.67 6.18ZM 14.03 6.16C 14.03 6.16 14.03 6.16 14.03 6.16 14.03 6.16 13.86 6.3 13.86 6.3 13.86 6.3 13.86 6.16 13.86 6.16 13.86 6.16 14.03 6.16 14.03 6.16ZM 10 4C 10 4 10 2 10 2 10 2 12 4 12 4 12 4 10 4 10 4ZM 13.65 7.26C 13.65 7.26 14.06 6.92 14.06 6.92 14.06 6.92 14.06 14.04 14.06 14.04 14.06 14.04 9.69 10.53 9.69 10.53 9.69 10.53 10.32 10 10.32 10 10.32 10 13.65 7.26 13.65 7.26 13.65 7.26 13.65 7.26 13.65 7.26ZM 9.04 10.27C 9.04 10.27 9.04 10.27 9.04 10.27 9.04 10.27 8.96 10.34 8.96 10.34 8.96 10.34 8.95 10.35 8.95 10.35 8.95 10.35 7.86 11.25 7.86 11.25 7.79 11.31 7.68 11.35 7.57 11.35 7.46 11.35 7.34 11.31 7.28 11.25 7.28 11.25 7.11 11.12 7.11 11.12 7.11 11.12 6.25 10.41 6.25 10.41 6.25 10.41 6.25 10.41 6.25 10.41 6.25 10.41 1.84 6.77 1.84 6.77 1.84 6.77 2 2 2 2 2 2 9 2 9 2 9 2 9 5 9 5 9 5 13.26 5.06 13.26 5.06 13.26 5.06 13.26 6.8 13.26 6.8 13.26 6.8 9.04 10.27 9.04 10.27ZM 1.84 7.56C 1.84 7.56 1.84 7.56 1.84 7.56 1.84 7.56 3.78 9.15 3.78 9.15 3.78 9.15 5.41 10.5 5.41 10.5 5.41 10.5 1.03 14.04 1.03 14.04 1.03 14.04 1.03 6.89 1.03 6.89 1.03 6.89 1.84 7.56 1.84 7.56ZM 5.89 10.89C 5.89 10.89 6.89 11.72 6.89 11.72 7.09 11.88 7.33 11.95 7.57 11.95 7.8 11.95 8.04 11.88 8.24 11.72 8.24 11.72 9.21 10.92 9.21 10.92 9.21 10.92 14.06 14.82 14.06 14.82 14.06 14.84 14.04 14.85 14.02 14.85 14.02 14.85 1.07 14.85 1.07 14.85 1.05 14.85 1.04 14.83 1.03 14.82 1.03 14.82 5.89 10.89 5.89 10.89ZM 1.1 6.16C 1.1 6.16 1.24 6.16 1.24 6.16 1.24 6.16 1.24 6.28 1.24 6.28 1.24 6.28 1.1 6.16 1.1 6.16Z" fill="rgb(255,255,255)"/></svg>