<?xml version="1.0" encoding="utf-8"?>
<svg xmlns="http://www.w3.org/2000/svg"
	xmlns:xlink="http://www.w3.org/1999/xlink"
	width="17px" height="13px" viewBox="0 0 17 13">
<path fillRule="evenodd" d="M 15.58 1.99C 15.58 1.99 15.58 1.78 15.58 1.78 15.57 1.51 15.36 1.3 15.1 1.3 15.1 1.3 8.31 1.3 8.31 1.3 8.3 1.3 8.29 1.3 8.28 1.3 8.27 1.29 8.27 1.29 8.26 1.28 8.26 1.28 7.5 0.36 7.5 0.36 7.36 0.21 7.2 0.01 7-0 7-0 1-0 1-0 0.74-0 0.71 0.33 0.71 0.6 0.71 0.6 0.71 3.24 0.71 3.24 0.48 3.28-0 3.76-0 4-0 4-0 12-0 12 0 12.27 0.73 13 1 13 1 13 16 13 16 13 16.27 13 15.97 13.08 15.97 12.81 15.97 12.81 15.97 2.47 15.97 2.47 15.97 2.23 15.8 2.03 15.58 1.99ZM 1.31 1.64C 1.31 1.64 1 1 1 1 1 1 7 1 7 1 7.01 1 7 0.73 7.02 0.74 7.02 0.75 7.03 0.75 7.04 0.75 7.04 0.75 7.77 1.64 7.77 1.64 7.77 1.64 1.31 1.64 1.31 1.64ZM 1.88 2.25C 1.88 2.25 8.82 2.25 8.82 2.25 8.82 2.25 8.27 2.9 8.27 2.9 8.27 2.9 8.03 3.2 8.03 3.2 8.02 3.21 8.01 3.22 8 3.23 8 3.23 1.88 3.23 1.88 3.23 1.88 3.23 1.88 2.25 1.88 2.25ZM 8.09 3.84C 8.1 3.84 8.1 3.84 8.11 3.84 8.11 3.84 8.24 3.83 8.28 3.8 8.31 3.79 8.38 3.72 8.38 3.72 8.4 3.7 8.44 3.65 8.49 3.6 8.49 3.6 9.3 2.64 9.3 2.64 9.3 2.64 9.32 2.63 9.34 2.62 9.35 2.62 9.36 2.61 9.36 2.61 9.36 2.61 9 3 9 3 9 3 14 3 14 3 14 3 15 3 15 3 15 3 15 12 15 12 15 12 1 12 1 12 1 12 0.92 3.84 0.92 3.84 0.92 3.84 7.99 3.84 7.99 3.84 8.03 3.84 8.06 3.84 8.09 3.84Z" fill="rgb(255,255,255)"/></svg>