<?xml version="1.0" encoding="utf-8"?>
<svg xmlns="http://www.w3.org/2000/svg"
	xmlns:xlink="http://www.w3.org/1999/xlink"
	width="18px" height="12px" viewBox="0 0 18 12">
<path fillRule="evenodd" d="M 17-0C 17-0 16.84-0.08 16.84-0.08 16.84-0.08 16.84-0.08 16.84-0.08 16.84-0.08 17-0 17-0 17-0 1-0 1-0 0.59 0 0 0.59-0 1-0 1-0 11-0 11 0 11.41 0.59 12 1 12 1 12 17 12 17 12 17.41 12 18 11.41 18 11 18 11 18 1 18 1 18 0.59 17.41 0 17-0ZM 16 11C 15.78 11.17 16.89 11.12 16.84 11.12 16.84 11.12 1.06 11.12 1.06 11.12 1.02 11.12 2 11.04 2 11 2 11 2 11 2 11 2 11 7 7 7 7 7 7 8 8 8 8 8.23 8.19 8.72 8 9 8 9.28 8 9.77 8.19 10 8 10 8 11 7 11 7 11 7 16 11 16 11 16 11 16 11 16 11ZM 9.35 6.72C 9.35 6.72 9.35 6.72 9.35 6.73 9.34 6.73 9.33 6.74 9.31 6.75 9.22 6.81 9.1 6.85 8.98 6.85 8.98 6.85 8.98 6.85 8.97 6.85 8.97 6.85 8.97 6.85 8.97 6.85 8.83 6.85 8.69 6.8 8.6 6.72 8.6 6.72 2 1 2 1 2.01 0.99 1.98 1 2 1 2 1 16 1 16 1 16.03 1 15.98 0.98 16 1 16 1 9.66 6.47 9.66 6.47 9.66 6.47 9.35 6.72 9.35 6.72ZM 1 10C 1 10 1 2 1 2 1 2 6 6 6 6 6 6 1 10 1 10ZM 17 2C 17 2 16.93 10.17 16.93 10.17 16.93 10.17 12 6 12 6 12 6 17 2 17 2Z" fill="rgb(255,255,255)"/></svg>